{
  "accessors": [
    {
      "bufferView": 2,
      "componentType": 5126,
      "count": 2158,
      "max": [
        7.6475739479064941,
        11.435751914978027,
        2.9381837844848633
      ],
      "min": [
        -7.6475739479064941,
        -3.8190906047821045,
        -3.2964365482330322
      ],
      "type": "VEC3"
    },
    {
      "bufferView": 2,
      "byteOffset": 25896,
      "componentType": 5126,
      "count": 2158,
      "max": [
        1,
        0.99483770132064819,
        0.99978351593017578
      ],
      "min": [
        -1,
        -0.99999231100082397,
        -0.99999707937240601
      ],
      "type": "VEC3"
    },
    {
      "bufferView": 1,
      "componentType": 5125,
      "count": 3726,
      "max": [
        2157
      ],
      "min": [
        0
      ],
      "type": "SCALAR"
    },
    {
      "bufferView": 4,
      "componentType": 5126,
      "count": 45,
      "max": [
        1,
        1,
        0.0016899999463930726,
        0,
        1,
        1,
        0.77061998844146729,
        0,
        0.97180002927780151,
        0.88515001535415649,
        1.0113799571990967,
        0,
        3.6023499965667725,
        2.0308599472045898,
        1.4828100204467773,
        1
      ],
      "min": [
        -1,
        -1,
        -0.0016899999463930726,
        0,
        -1,
        -1,
        -0.9611700177192688,
        0,
        -0.97180002927780151,
        -0.90921002626419067,
        -1.0113799571990967,
        0,
        -3.6023499965667725,
        -10.577639579772949,
        -2.9974501132965088,
        1
      ],
      "type": "MAT4"
    },
    {
      "bufferView": 0,
      "componentType": 5123,
      "count": 2158,
      "max": [
        44,
        44,
        40,
        40
      ],
      "min": [
        2,
        2,
        2,
        4
      ],
      "type": "VEC4"
    },
    {
      "bufferView": 3,
      "componentType": 5126,
      "count": 2158,
      "max": [
        1,
        0.5,
        0.3333333432674408,
        0.25
      ],
      "min": [
        0,
        0,
        0,
        0
      ],
      "type": "VEC4"
    }
  ],
  "asset": {
    "extras": {
      "author": "carnotaurusarms (https://sketchfab.com/carnotaurusarms)",
      "license": "CC-BY-4.0 (http://creativecommons.org/licenses/by/4.0/)",
      "source": "https://sketchfab.com/3d-models/ant-low-poly-1fb4252876e94cb0a77951fb7a4ed6a7",
      "title": "Ant Low Poly"
    },
    "generator": "Sketchfab-7.39.0",
    "version": "2.0"
  },
  "bufferViews": [
    {
      "buffer": 0,
      "byteLength": 17264,
      "byteOffset": 0,
      "byteStride": 8,
      "name": "shortBufferViews",
      "target": 34962
    },
    {
      "buffer": 0,
      "byteLength": 14904,
      "byteOffset": 17264,
      "name": "floatBufferViews",
      "target": 34963
    },
    {
      "buffer": 0,
      "byteLength": 51792,
      "byteOffset": 32168,
      "byteStride": 12,
      "name": "floatBufferViews",
      "target": 34962
    },
    {
      "buffer": 0,
      "byteLength": 34528,
      "byteOffset": 83960,
      "byteStride": 16,
      "name": "floatBufferViews",
      "target": 34962
    },
    {
      "buffer": 0,
      "byteLength": 2880,
      "byteOffset": 118488,
      "byteStride": 64,
      "name": "floatBufferViews"
    }
  ],
  "buffers": [
    {
      "byteLength": 121368,
      "uri": "scene.bin"
    }
  ],
  "materials": [
    {
      "doubleSided": true,
      "emissiveFactor": [
        0,
        0,
        0
      ],
      "name": "Material",
      "pbrMetallicRoughness": {
        "baseColorFactor": [
          0.80000007152557373,
          0.062316272407770178,
          0.079080894589424161,
          1
        ],
        "metallicFactor": 0.9577568582018966,
        "roughnessFactor": 0.50765194682954995
      }
    }
  ],
  "meshes": [
    {
      "name": "Cube",
      "primitives": [
        {
          "attributes": {
            "JOINTS_0": 4,
            "NORMAL": 1,
            "POSITION": 0,
            "WEIGHTS_0": 5
          },
          "indices": 2,
          "material": 0,
          "mode": 4
        }
      ]
    }
  ],
  "nodes": [
    {
      "children": [
        1
      ],
      "name": "RootNode (gltf orientation matrix)",
      "rotation": [
        -0.70710678118654746,
        -0,
        -0,
        0.70710678118654757
      ]
    },
    {
      "children": [
        2
      ],
      "name": "RootNode (model correction matrix)"
    },
    {
      "children": [
        3,
        5
      ],
      "name": "Root"
    },
    {
      "children": [
        4
      ],
      "matrix": [
        -0.29086000000000006,
        0.95517000000000007,
        -0.05519000000000001,
        0,
        -0.77110000000000001,
        -0.19988000000000003,
        0.60452000000000006,
        0,
        0.56639000000000006,
        0.21839000000000003,
        0.7946700000000001,
        0,
        4.0762500000000008,
        1.00545,
        5.4446000000000003,
        1
      ],
      "name": "Lamp"
    },
    {
      "name": "Lamp"
    },
    {
      "children": [
        6,
        52,
        51
      ],
      "name": "Armature"
    },
    {
      "children": [
        7,
        8
      ],
      "name": "Armature_rootJoint"
    },
    {
      "name": "Root_Armature",
      "rotation": [
        -0.0010499982163310051,
        0,
        0,
        0.99999946355819702
      ],
      "scale": [
        1,
        1.0000021457672119,
        1.0000021457672119
      ],
      "translation": [
        0,
        -0.5,
        0.044679999351501465
      ]
    },
    {
      "children": [
        9,
        10,
        33,
        37,
        42,
        46
      ],
      "name": "hip_Armature",
      "rotation": [
        -0.001264996943064034,
        0,
        0,
        0.99999922513961792
      ],
      "scale": [
        1,
        1.0000032186508179,
        1.0000032186508179
      ],
      "translation": [
        0,
        0.2415899932384491,
        0.96802002191543579
      ]
    },
    {
      "name": "abdomen_Armature",
      "rotation": [
        0.51814532279968262,
        0,
        0,
        0.85529261827468872
      ],
      "scale": [
        1,
        0.99999809265136719,
        0.99999809265136719
      ],
      "translation": [
        0,
        0.82734000682830811,
        0
      ]
    },
    {
      "children": [
        11
      ],
      "name": "thorax3_Armature",
      "rotation": [
        0.99999642372131348,
        0,
        1.5084842743817717e-05,
        -0.0026700305752456188
      ],
      "scale": [
        1,
        1.0000041723251343,
        0.98874419927597046
      ],
      "translation": [
        0,
        0.37900999188423157,
        0.50080001354217529
      ]
    },
    {
      "children": [
        12,
        21,
        27
      ],
      "name": "thorax2_Armature",
      "rotation": [
        5.5120267461461481e-06,
        0.95644223690032959,
        -0.29192164540290833,
        1.341516417596722e-05
      ],
      "scale": [
        1.0000015497207642,
        0.99999576807022095,
        0.99999427795410156
      ],
      "translation": [
        0,
        0.75471997261047363,
        0
      ]
    },
    {
      "children": [
        13
      ],
      "name": "thorax1_Armature",
      "rotation": [
        -0.37845590710639954,
        0,
        0,
        0.92561930418014526
      ],
      "scale": [
        1,
        0.9999968409538269,
        0.9999968409538269
      ],
      "translation": [
        0,
        0.93036001920700073,
        0
      ]
    },
    {
      "children": [
        14
      ],
      "name": "neck_Armature",
      "rotation": [
        0.16541942954063416,
        0,
        0,
        0.98622339963912964
      ],
      "scale": [
        1,
        0.99999701976776123,
        0.99999701976776123
      ],
      "translation": [
        0,
        0.90797001123428345,
        0
      ]
    },
    {
      "children": [
        15,
        18
      ],
      "name": "head_Armature",
      "rotation": [
        -0.39196395874023438,
        0,
        0,
        0.91998058557510376
      ],
      "scale": [
        1,
        1.0000021457672119,
        1.0000021457672119
      ],
      "translation": [
        0,
        0.37272998690605164,
        0
      ]
    },
    {
      "children": [
        16
      ],
      "name": "antennae1.L_Armature",
      "rotation": [
        0.79446214437484741,
        -0.13996632397174835,
        -0.58478140830993652,
        0.085266008973121643
      ],
      "scale": [
        0.99999541044235229,
        1.0000025033950806,
        0.99999725818634033
      ],
      "translation": [
        -0.37922999262809753,
        1.2476799488067627,
        0.74559998512268066
      ]
    },
    {
      "children": [
        17
      ],
      "name": "antennae2.L_Armature",
      "rotation": [
        0.660289466381073,
        -0.27052482962608337,
        -0.31585261225700378,
        0.62535691261291504
      ],
      "scale": [
        1.0000044107437134,
        0.99999451637268066,
        0.99999868869781494
      ],
      "translation": [
        0,
        1.3277000188827515,
        0
      ]
    },
    {
      "name": "antennae3.L_Armature",
      "rotation": [
        -0.30634483695030212,
        -0.11064492166042328,
        -0.045103024691343307,
        0.94439202547073364
      ],
      "scale": [
        1.0000046491622925,
        1.0000020265579224,
        0.99999898672103882
      ],
      "translation": [
        0,
        3.704279899597168,
        0
      ]
    },
    {
      "children": [
        19
      ],
      "name": "antennae1.R_Armature",
      "rotation": [
        0.026622336357831955,
        0.14638951420783997,
        0.98319864273071289,
        -0.10574392974376678
      ],
      "scale": [
        1.000001072883606,
        1.0000035762786865,
        0.99999725818634033
      ],
      "translation": [
        0.37922999262809753,
        1.2476799488067627,
        0.74559998512268066
      ]
    },
    {
      "children": [
        20
      ],
      "name": "antennae2.R_Armature",
      "rotation": [
        0.66723746061325073,
        -0.54708677530288696,
        -0.24343241751194,
        -0.44297957420349121
      ],
      "scale": [
        1.000001072883606,
        0.99999344348907471,
        0.99999654293060303
      ],
      "translation": [
        0,
        1.3276900053024292,
        0
      ]
    },
    {
      "name": "antennae3.R_Armature",
      "rotation": [
        0.3119293749332428,
        -0.02310272678732872,
        -0.11593582481145859,
        0.94272226095199585
      ],
      "scale": [
        0.99999797344207764,
        1.0000051259994507,
        0.99999558925628662
      ],
      "translation": [
        0,
        3.704279899597168,
        0
      ]
    },
    {
      "children": [
        22
      ],
      "name": "clav.L_Armature",
      "rotation": [
        -0.74657368659973145,
        -0.035578902810811996,
        0.13167983293533325,
        0.65117001533508301
      ],
      "scale": [
        1.0000029802322388,
        1.0000007152557373,
        0.99999189376831055
      ],
      "translation": [
        -0.32824999094009399,
        1.1439900398254395,
        -0.14293000102043152
      ]
    },
    {
      "children": [
        23
      ],
      "name": "upperarm.L_Armature",
      "rotation": [
        0,
        0.80608630180358887,
        -0.59179800748825073,
        0
      ],
      "scale": [
        1,
        0.99999940395355225,
        0.99999940395355225
      ],
      "translation": [
        0,
        0.62879997491836548,
        0
      ]
    },
    {
      "children": [
        24
      ],
      "name": "forearm.L_Armature",
      "rotation": [
        -0.86583781242370605,
        0,
        0,
        0.50032484531402588
      ],
      "scale": [
        1,
        0.99999970197677612,
        0.99999970197677612
      ],
      "translation": [
        0,
        1.1147099733352661,
        0
      ]
    },
    {
      "children": [
        25
      ],
      "name": "wrist.L_Armature",
      "rotation": [
        0.32954388856887817,
        0,
        0,
        0.94414025545120239
      ],
      "scale": [
        1,
        0.99999791383743286,
        0.99999791383743286
      ],
      "translation": [
        0,
        1.5443099737167358,
        0
      ]
    },
    {
      "children": [
        26
      ],
      "name": "hand1.L_Armature",
      "rotation": [
        -0.13918547332286835,
        0,
        0,
        0.99026632308959961
      ],
      "scale": [
        1,
        0.99999499320983887,
        0.99999499320983887
      ],
      "translation": [
        0,
        1.3151400089263916,
        0
      ]
    },
    {
      "name": "hand2.L_Armature",
      "rotation": [
        -0.01854323223233223,
        0,
        0,
        0.99982815980911255
      ],
      "scale": [
        1,
        0.99999767541885376,
        0.99999767541885376
      ],
      "translation": [
        0,
        1.184190034866333,
        0
      ]
    },
    {
      "children": [
        28
      ],
      "name": "clav.R_Armature",
      "rotation": [
        -0.73717552423477173,
        0.054189812391996384,
        -0.20055823028087616,
        0.64297139644622803
      ],
      "scale": [
        1.0000011920928955,
        0.9999958872795105,
        1.000002384185791
      ],
      "translation": [
        0.32824999094009399,
        1.1439900398254395,
        -0.14293000102043152
      ]
    },
    {
      "children": [
        29
      ],
      "name": "upperarm.R_Armature",
      "rotation": [
        0,
        0.80608630180358887,
        -0.59179800748825073,
        0
      ],
      "scale": [
        1,
        0.99999940395355225,
        0.99999940395355225
      ],
      "translation": [
        0,
        0.62879997491836548,
        0
      ]
    },
    {
      "children": [
        30
      ],
      "name": "forearm.R_Armature",
      "rotation": [
        -0.84702897071838379,
        0.0033999113366007805,
        -0.024125339463353157,
        0.53098803758621216
      ],
      "scale": [
        0.99999696016311646,
        1.0000017881393433,
        0.99999946355819702
      ],
      "translation": [
        0,
        1.1147199869155884,
        0
      ]
    },
    {
      "children": [
        31
      ],
      "name": "wrist.R_Armature",
      "rotation": [
        0.31692874431610107,
        0,
        0,
        0.94844937324523926
      ],
      "scale": [
        1,
        0.99999707937240601,
        0.99999707937240601
      ],
      "translation": [
        0,
        1.5443099737167358,
        0
      ]
    },
    {
      "children": [
        32
      ],
      "name": "hand1.R_Armature",
      "rotation": [
        -0.20288558304309845,
        0,
        0,
        0.97920244932174683
      ],
      "scale": [
        1,
        0.99999469518661499,
        0.99999469518661499
      ],
      "translation": [
        0,
        1.3151400089263916,
        0
      ]
    },
    {
      "name": "hand2.R_Armature",
      "rotation": [
        -0.0046250363811850548,
        0,
        0,
        0.99998933076858521
      ],
      "scale": [
        1,
        1.0000027418136597,
        1.0000027418136597
      ],
      "translation": [
        0,
        1.2247400283813477,
        0
      ]
    },
    {
      "children": [
        34
      ],
      "name": "F_leg1.L_Armature",
      "rotation": [
        0.46174147725105286,
        -0.20358990132808685,
        -0.34420570731163025,
        0.79175019264221191
      ],
      "scale": [
        1.0000041723251343,
        0.99999338388442993,
        0.99999594688415527
      ],
      "translation": [
        0.43601998686790466,
        -0.021199999377131462,
        -0.077519997954368591
      ]
    },
    {
      "children": [
        35
      ],
      "name": "F_leg2.L_Armature",
      "rotation": [
        0.86131298542022705,
        -0.097420245409011841,
        0.0099881961941719055,
        -0.49854734539985657
      ],
      "scale": [
        1.0000017881393433,
        1.000003457069397,
        0.99999403953552246
      ],
      "translation": [
        0,
        1.2789499759674072,
        0
      ]
    },
    {
      "children": [
        36
      ],
      "name": "F_leg3.L_Armature",
      "rotation": [
        0.16330340504646301,
        -0.049410849809646606,
        -0.045133426785469055,
        0.98430359363555908
      ],
      "scale": [
        0.9999956488609314,
        1.0000011920928955,
        0.99999886751174927
      ],
      "translation": [
        0,
        1.7105599641799927,
        0
      ]
    },
    {
      "name": "F_foot.L_Armature",
      "rotation": [
        0.13435131311416626,
        -0.029326040297746658,
        -0.018110077828168869,
        0.990334153175354
      ],
      "scale": [
        0.99999606609344482,
        0.99999469518661499,
        1.0000021457672119
      ],
      "translation": [
        0,
        2.3121199607849121,
        0
      ]
    },
    {
      "children": [
        38
      ],
      "name": "B_leg1.L_Armature",
      "rotation": [
        -0.33131319284439087,
        0.069144599139690399,
        -0.19077704846858978,
        0.92144167423248291
      ],
      "scale": [
        1.0000051259994507,
        0.99999469518661499,
        1.0000002384185791
      ],
      "translation": [
        0.38646000623703003,
        0.2637999951839447,
        -0.12797999382019043
      ]
    },
    {
      "children": [
        39
      ],
      "name": "B_leg2.L_Armature",
      "rotation": [
        0.72441381216049194,
        -0.0054253265261650085,
        0.0049903122708201408,
        0.68932604789733887
      ],
      "scale": [
        0.99999856948852539,
        0.9999995231628418,
        1.0000015497207642
      ],
      "translation": [
        0,
        0.45552998781204224,
        0
      ]
    },
    {
      "children": [
        40
      ],
      "name": "B_leg3.L_Armature",
      "rotation": [
        -0.85659193992614746,
        0.0063782050274312496,
        -0.0036976099945604801,
        0.51594173908233643
      ],
      "scale": [
        0.99999529123306274,
        1.0000019073486328,
        1.0000059604644775
      ],
      "translation": [
        0,
        3.6968300342559814,
        0
      ]
    },
    {
      "children": [
        41
      ],
      "name": "B_leg4.L_Armature",
      "rotation": [
        0.18204464018344879,
        -0.00046041898895055056,
        -0.0078971832990646362,
        0.98325854539871216
      ],
      "scale": [
        0.99999463558197021,
        1.0000069141387939,
        1.0000002384185791
      ],
      "translation": [
        0,
        2.3672199249267578,
        0
      ]
    },
    {
      "name": "B_foot.L_Armature",
      "rotation": [
        0.20126885175704956,
        0.0007124290568754077,
        0.0065951552242040634,
        0.97951358556747437
      ],
      "scale": [
        1.0000003576278687,
        0.99999290704727173,
        0.99999892711639404
      ],
      "translation": [
        0,
        3.4653599262237549,
        0
      ]
    },
    {
      "children": [
        43
      ],
      "name": "F_leg1.R_Armature",
      "rotation": [
        0.45069116353988647,
        0.22117431461811066,
        0.34351548552513123,
        0.7936980128288269
      ],
      "scale": [
        1.0000048875808716,
        0.99999821186065674,
        0.9999997615814209
      ],
      "translation": [
        -0.43601998686790466,
        -0.021199999377131462,
        -0.077519997954368591
      ]
    },
    {
      "children": [
        44
      ],
      "name": "F_leg2.R_Armature",
      "rotation": [
        -0.84018826484680176,
        -0.0022010365501046181,
        0.0014194990508258343,
        0.54228848218917847
      ],
      "scale": [
        1.0000042915344238,
        1.0000061988830566,
        0.99999570846557617
      ],
      "translation": [
        0,
        1.2789499759674072,
        0
      ]
    },
    {
      "children": [
        45
      ],
      "name": "F_leg3.R_Armature",
      "rotation": [
        0.075438849627971649,
        0.036959398537874222,
        0.056192975491285324,
        0.99487954378128052
      ],
      "scale": [
        0.99999982118606567,
        0.99999362230300903,
        1.0000051259994507
      ],
      "translation": [
        0,
        1.7105599641799927,
        0
      ]
    },
    {
      "name": "F_foot.R_Armature",
      "rotation": [
        0.1248694509267807,
        0.0046182768419384956,
        0.044268019497394562,
        0.99117439985275269
      ],
      "scale": [
        1.0000013113021851,
        1.0000065565109253,
        0.9999956488609314
      ],
      "translation": [
        0,
        2.3121199607849121,
        0
      ]
    },
    {
      "children": [
        47
      ],
      "name": "B_leg1.R_Armature",
      "rotation": [
        -0.41034334897994995,
        -0.089264161884784698,
        0.19169445335865021,
        0.88707578182220459
      ],
      "scale": [
        1.0000003576278687,
        0.99999278783798218,
        1.0000021457672119
      ],
      "translation": [
        -0.38646000623703003,
        0.2637999951839447,
        -0.12797999382019043
      ]
    },
    {
      "children": [
        48
      ],
      "name": "B_leg2.R_Armature",
      "rotation": [
        0.75116097927093506,
        0.0056190909817814827,
        -0.0047724056057631969,
        0.66007792949676514
      ],
      "scale": [
        0.99999845027923584,
        1.0000051259994507,
        0.99999600648880005
      ],
      "translation": [
        0,
        0.45552998781204224,
        0
      ]
    },
    {
      "children": [
        49
      ],
      "name": "B_leg3.R_Armature",
      "rotation": [
        -0.83372652530670166,
        -0.0062142275273799896,
        0.0039669238030910492,
        0.5521283745765686
      ],
      "scale": [
        0.99999678134918213,
        1.0000001192092896,
        1.000005841255188
      ],
      "translation": [
        0,
        3.6968300342559814,
        0
      ]
    },
    {
      "children": [
        50
      ],
      "name": "B_leg4.R_Armature",
      "rotation": [
        0.21567220985889435,
        -0.0025197381619364023,
        0.0074962903745472431,
        0.97643381357192993
      ],
      "scale": [
        0.9999920129776001,
        1.0000025033950806,
        1.0000039339065552
      ],
      "translation": [
        0,
        2.3672199249267578,
        0
      ]
    },
    {
      "name": "B_foot.R_Armature",
      "rotation": [
        0.21295920014381409,
        -0.00084985885769128799,
        -0.007863256148993969,
        0.97702908515930176
      ],
      "scale": [
        0.99999278783798218,
        0.99999868869781494,
        1.0000053644180298
      ],
      "translation": [
        0,
        3.4653599262237549,
        0
      ]
    },
    {
      "matrix": [
        0.42749000000000004,
        0,
        0,
        0,
        0,
        0.37433000000000005,
        -0.20647000000000001,
        0,
        -0,
        0.20647000000000001,
        0.37433000000000005,
        0,
        0,
        -3.0485900000000004,
        1.39175,
        1
      ],
      "name": "Cube"
    },
    {
      "mesh": 0,
      "name": "Cube_0",
      "skin": 0
    }
  ],
  "scene": 0,
  "scenes": [
    {
      "name": "OSG_Scene",
      "nodes": [
        0
      ]
    }
  ],
  "skins": [
    {
      "inverseBindMatrices": 3,
      "joints": [
        6,
        7,
        8,
        9,
        10,
        11,
        12,
        13,
        14,
        15,
        16,
        17,
        18,
        19,
        20,
        21,
        22,
        23,
        24,
        25,
        26,
        27,
        28,
        29,
        30,
        31,
        32,
        33,
        34,
        35,
        36,
        37,
        38,
        39,
        40,
        41,
        42,
        43,
        44,
        45,
        46,
        47,
        48,
        49,
        50
      ],
      "skeleton": 6
    }
  ]
}

